<svg xmlns="http://www.w3.org/2000/svg" viewBox="0 0 100 100" width="240" height="240">
  <circle cx="50" cy="50" r="50" fill="#CBD8E6"/>
  <rect x="43" y="62" width="14" height="16" fill="#E8BC98"/>
  <path fill="#2F2723" d="M50,15 C72,15 82,29 82,46 L82,66 L76,66 L76,46 C76,32 66,23 50,23 C34,23 24,32 24,46 L24,66 L18,66 L18,46 C18,29 28,15 50,15 Z"/>
  <ellipse cx="50" cy="48" rx="20" ry="23" fill="#F0C9A8"/>
  <path fill="#2F2723" d="M29,45 C29,27 38,21 50,21 C62,21 71,27 71,45 C67,33 60,29 50,29 C40,29 33,33 29,45 Z"/>
  <path stroke="#2F2723" stroke-width="2.2" stroke-linecap="round" fill="none" d="M37,42 L46,41"/>
  <path stroke="#2F2723" stroke-width="2.2" stroke-linecap="round" fill="none" d="M54,41 L63,42"/>
  <circle cx="42" cy="48" r="2.6" fill="#2F2723"/>
  <circle cx="58" cy="48" r="2.6" fill="#2F2723"/>
  <path stroke="#B5675A" stroke-width="2" stroke-linecap="round" fill="none" d="M45,58 L55,58"/>
  <path fill="#4A5568" d="M50,72 C36,72 26,80 24,100 L76,100 C74,80 64,72 50,72 Z"/>
  <path fill="#5F8A68" d="M44,72 L50,82 L56,72 Z"/>
</svg>
